<mxfile host="app.diagrams.net" modified="2021-05-31T04:12:55.863Z" agent="5.0 (Windows NT 10.0; Win64; x64) AppleWebKit/537.36 (KHTML, like Gecko) Chrome/91.0.4472.77 Safari/537.36" etag="pcbv57EF8w2yPqgO3i23" version="14.7.3" type="github">
  <diagram id="BQ_XUraueQYO2NuGsHbD" name="第 1 页">
    <mxGraphModel dx="918" dy="633" grid="1" gridSize="10" guides="1" tooltips="1" connect="1" arrows="1" fold="1" page="1" pageScale="1" pageWidth="827" pageHeight="1169" math="0" shadow="0">
      <root>
        <mxCell id="0" />
        <mxCell id="1" parent="0" />
        <mxCell id="EOxAyNvZtww4RezJIQQF-8" value="" style="shape=partialRectangle;whiteSpace=wrap;html=1;bottom=1;right=1;left=1;top=0;fillColor=none;routingCenterX=-0.5;rotation=-180;" vertex="1" parent="1">
          <mxGeometry x="200" y="480" width="360" height="150" as="geometry" />
        </mxCell>
        <mxCell id="EOxAyNvZtww4RezJIQQF-2" value="&lt;font style=&quot;font-size: 14px&quot; color=&quot;#ff0000&quot;&gt;&lt;b&gt;Browser&lt;/b&gt;&lt;/font&gt;" style="text;html=1;strokeColor=none;fillColor=none;align=center;verticalAlign=middle;whiteSpace=wrap;rounded=0;" vertex="1" parent="1">
          <mxGeometry x="480" y="480" width="80" height="30" as="geometry" />
        </mxCell>
        <mxCell id="EOxAyNvZtww4RezJIQQF-5" value="/20-1" style="rounded=0;whiteSpace=wrap;html=1;fillColor=#dae8fc;strokeColor=#6c8ebf;" vertex="1" parent="1">
          <mxGeometry x="215" y="480" width="70" height="40" as="geometry" />
        </mxCell>
        <mxCell id="EOxAyNvZtww4RezJIQQF-6" value="/proxy" style="rounded=0;whiteSpace=wrap;html=1;fillColor=#dae8fc;strokeColor=#6c8ebf;" vertex="1" parent="1">
          <mxGeometry x="320" y="480" width="70" height="40" as="geometry" />
        </mxCell>
        <mxCell id="EOxAyNvZtww4RezJIQQF-7" value="&lt;b&gt;&lt;font color=&quot;#ff0000&quot;&gt;80&lt;/font&gt;&lt;/b&gt;" style="text;html=1;strokeColor=none;fillColor=none;align=center;verticalAlign=middle;whiteSpace=wrap;rounded=0;" vertex="1" parent="1">
          <mxGeometry x="200" y="630" width="40" height="20" as="geometry" />
        </mxCell>
        <mxCell id="EOxAyNvZtww4RezJIQQF-9" value="" style="shape=crossbar;whiteSpace=wrap;html=1;rounded=1;" vertex="1" parent="1">
          <mxGeometry x="240" y="610" width="20" height="20" as="geometry" />
        </mxCell>
        <mxCell id="EOxAyNvZtww4RezJIQQF-10" value="" style="shape=crossbar;whiteSpace=wrap;html=1;rounded=1;" vertex="1" parent="1">
          <mxGeometry x="510" y="610" width="20" height="20" as="geometry" />
        </mxCell>
        <mxCell id="EOxAyNvZtww4RezJIQQF-14" value="" style="group" vertex="1" connectable="0" parent="1">
          <mxGeometry x="250" y="670" width="270" as="geometry" />
        </mxCell>
        <mxCell id="EOxAyNvZtww4RezJIQQF-15" value="" style="group;fontColor=#FF6666;" vertex="1" connectable="0" parent="EOxAyNvZtww4RezJIQQF-14">
          <mxGeometry width="270" as="geometry" />
        </mxCell>
        <mxCell id="EOxAyNvZtww4RezJIQQF-11" value="" style="endArrow=none;html=1;entryX=0.5;entryY=1;entryDx=0;entryDy=0;" edge="1" parent="EOxAyNvZtww4RezJIQQF-15" target="EOxAyNvZtww4RezJIQQF-2">
          <mxGeometry width="50" height="50" relative="1" as="geometry">
            <mxPoint x="270" as="sourcePoint" />
            <mxPoint x="220" as="targetPoint" />
          </mxGeometry>
        </mxCell>
        <mxCell id="EOxAyNvZtww4RezJIQQF-12" value="" style="endArrow=none;html=1;" edge="1" parent="EOxAyNvZtww4RezJIQQF-15">
          <mxGeometry width="50" height="50" relative="1" as="geometry">
            <mxPoint as="sourcePoint" />
            <mxPoint x="270" as="targetPoint" />
          </mxGeometry>
        </mxCell>
        <mxCell id="EOxAyNvZtww4RezJIQQF-13" value="" style="endArrow=none;html=1;entryX=0.5;entryY=1;entryDx=0;entryDy=0;" edge="1" parent="EOxAyNvZtww4RezJIQQF-15" target="EOxAyNvZtww4RezJIQQF-5">
          <mxGeometry width="50" height="50" relative="1" as="geometry">
            <mxPoint as="sourcePoint" />
            <mxPoint x="280" as="targetPoint" />
          </mxGeometry>
        </mxCell>
      </root>
    </mxGraphModel>
  </diagram>
</mxfile>
